<svg width="144" height="20" viewBox="0 0 144 20" fill="none" xmlns="http://www.w3.org/2000/svg">
<path d="M9.776 19V1.96H16.592C20.672 1.96 23.144 4.072 23.144 7.528C23.144 10.984 20.672 13.12 16.592 13.12H13.424V19H9.776ZM13.424 10.048H16.376C18.296 10.048 19.4 9.184 19.4 7.528C19.4 5.872 18.296 5.032 16.376 5.032H13.424V10.048ZM22.7328 19L28.8768 1.96H33.1968L39.3408 19H35.5488L34.3008 15.376H27.7488L26.5008 19H22.7328ZM28.7808 12.376H33.2928L31.0368 5.8L28.7808 12.376ZM47.3626 19.384C42.9706 19.384 40.3546 17.032 40.1146 13.384L43.7866 13.216C44.0506 15.232 45.2266 16.36 47.4106 16.36C49.2346 16.36 50.2666 15.688 50.2666 14.392C50.2666 13.216 49.6666 12.52 46.4746 11.8C42.1066 10.816 40.4266 9.616 40.4266 6.712C40.4266 3.664 42.8266 1.576 46.8106 1.576C51.0586 1.576 53.3146 3.976 53.6986 7.336L50.0506 7.528C49.8586 5.752 48.7306 4.6 46.7626 4.6C45.1306 4.6 44.1226 5.392 44.1226 6.592C44.1226 7.864 44.8906 8.392 47.6746 8.968C52.4026 9.928 53.9626 11.632 53.9626 14.224C53.9626 17.416 51.4186 19.384 47.3626 19.384ZM63.6517 19.384C59.2597 19.384 56.6437 17.032 56.4037 13.384L60.0757 13.216C60.3397 15.232 61.5157 16.36 63.6997 16.36C65.5237 16.36 66.5557 15.688 66.5557 14.392C66.5557 13.216 65.9557 12.52 62.7637 11.8C58.3957 10.816 56.7157 9.616 56.7157 6.712C56.7157 3.664 59.1157 1.576 63.0997 1.576C67.3477 1.576 69.6037 3.976 69.9877 7.336L66.3397 7.528C66.1477 5.752 65.0197 4.6 63.0517 4.6C61.4197 4.6 60.4117 5.392 60.4117 6.592C60.4117 7.864 61.1797 8.392 63.9637 8.968C68.6917 9.928 70.2517 11.632 70.2517 14.224C70.2517 17.416 67.7077 19.384 63.6517 19.384Z" fill="#94A3B8"/>
<path d="M72.7291 19V1.96H79.5451C83.6251 1.96 86.0971 4.072 86.0971 7.528C86.0971 10.984 83.6251 13.12 79.5451 13.12H76.3771V19H72.7291ZM76.3771 10.048H79.3291C81.2491 10.048 82.3531 9.184 82.3531 7.528C82.3531 5.872 81.2491 5.032 79.3291 5.032H76.3771V10.048ZM96.3421 19.384C91.1581 19.384 88.0621 16 88.0621 10.504C88.0621 5.008 91.1581 1.576 96.3421 1.576C101.526 1.576 104.646 5.008 104.646 10.504C104.646 16 101.526 19.384 96.3421 19.384ZM96.3421 16.312C99.1981 16.312 100.902 14.2 100.902 10.504C100.902 6.808 99.1981 4.648 96.3421 4.648C93.5101 4.648 91.8061 6.808 91.8061 10.504C91.8061 14.2 93.5101 16.312 96.3421 16.312ZM106.901 19V1.96H114.365C118.109 1.96 120.485 3.952 120.485 7.048C120.485 9.112 119.261 10.624 117.485 11.176C119.189 11.416 120.077 12.376 120.221 14.104L120.653 19H116.933L116.621 14.68C116.525 13.384 115.901 12.76 114.173 12.76H110.549V19H106.901ZM110.549 9.712H113.957C115.709 9.712 116.741 8.848 116.741 7.36C116.741 5.848 115.733 5.032 113.837 5.032H110.549V9.712ZM127.288 19V5.032H122.2V1.96H136.048V5.032H130.96V19H127.288Z" fill="#2563EB"/>
</svg>
